<?xml version="1.0" encoding="UTF-8" standalone="no"?>
<svg
   xmlns:dc="http://purl.org/dc/elements/1.1/"
   xmlns:cc="http://creativecommons.org/ns#"
   xmlns:rdf="http://www.w3.org/1999/02/22-rdf-syntax-ns#"
   xmlns:svg="http://www.w3.org/2000/svg"
   xmlns="http://www.w3.org/2000/svg"
   xmlns:sodipodi="http://sodipodi.sourceforge.net/DTD/sodipodi-0.dtd"
   xmlns:inkscape="http://www.inkscape.org/namespaces/inkscape"
   height="24px"
   viewBox="0 0 24 24"
   width="24px"
   fill="#000000"
   version="1.1"
   id="svg2055"
   sodipodi:docname="license_plate_add.svg"
   inkscape:version="1.0.2 (e86c8708, 2021-01-15)">
  <sodipodi:namedview
     pagecolor="#ffffff"
     bordercolor="#666666"
     borderopacity="1"
     objecttolerance="10"
     gridtolerance="10"
     guidetolerance="10"
     inkscape:pageopacity="0"
     inkscape:pageshadow="2"
     inkscape:window-width="1578"
     inkscape:window-height="767"
     id="namedview839"
     showgrid="false"
     inkscape:zoom="10.538785"
     inkscape:cx="11.702955"
     inkscape:cy="10.233828"
     inkscape:window-x="27"
     inkscape:window-y="23"
     inkscape:window-maximized="0"
     inkscape:current-layer="svg2055"
     inkscape:document-rotation="0" />
  <metadata
     id="metadata2061">
    <rdf:RDF>
      <cc:Work
         rdf:about="">
        <dc:format>image/svg+xml</dc:format>
        <dc:type
           rdf:resource="http://purl.org/dc/dcmitype/StillImage" />
        <dc:title />
      </cc:Work>
    </rdf:RDF>
  </metadata>
  <defs
     id="defs2059" />
  <path
     d="M0 0h24v24H0z"
     fill="none"
     id="path2051" />
  <path
     id="path2053"
     style="stroke-width:0.644678"
     d="m 18,1 v 3 h -3 v 2 h 3 v 3 h 2 V 6 h 3 V 4 H 20 V 1 Z M 3.0078125,10.128906 c -1.0235947,0 -1.8359375,0.402074 -1.8359375,0.902344 l -0.00977,5.408203 c 0,0.50027 0.8221083,0.900391 1.8457031,0.900391 H 18.498047 c 1.023594,0 1.107422,-0.400121 1.107422,-0.900391 V 11.03125 c 0,-0.50027 -0.820156,-0.902344 -1.84375,-0.902344 z M 1.9003906,10.792969 H 18.841797 l 0.02734,0.691406 v 2.214844 2.976562 H 1.9003906 V 13.734375 Z M 2.6,11.5 v 4.4 h 1.9 v -4.4 z"
     sodipodi:nodetypes="cccccccccccccsccssssssccccccccccccc" />
</svg>
