<?xml version="1.0" encoding="UTF-8" standalone="no"?>
<svg
   xmlns:dc="http://purl.org/dc/elements/1.1/"
   xmlns:cc="http://creativecommons.org/ns#"
   xmlns:rdf="http://www.w3.org/1999/02/22-rdf-syntax-ns#"
   xmlns:svg="http://www.w3.org/2000/svg"
   xmlns="http://www.w3.org/2000/svg"
   xmlns:sodipodi="http://sodipodi.sourceforge.net/DTD/sodipodi-0.dtd"
   xmlns:inkscape="http://www.inkscape.org/namespaces/inkscape"
   height="24px"
   viewBox="0 0 24 24"
   width="24px"
   fill="#000000"
   version="1.1"
   id="svg849"
   sodipodi:docname="vehicle_add.svg"
   inkscape:version="1.0.2 (e86c8708, 2021-01-15)">
  <metadata
     id="metadata855">
    <rdf:RDF>
      <cc:Work
         rdf:about="">
        <dc:format>image/svg+xml</dc:format>
        <dc:type
           rdf:resource="http://purl.org/dc/dcmitype/StillImage" />
      </cc:Work>
    </rdf:RDF>
  </metadata>
  <defs
     id="defs853" />
  <sodipodi:namedview
     pagecolor="#ffffff"
     bordercolor="#666666"
     borderopacity="1"
     objecttolerance="10"
     gridtolerance="10"
     guidetolerance="10"
     inkscape:pageopacity="0"
     inkscape:pageshadow="2"
     inkscape:window-width="1920"
     inkscape:window-height="953"
     id="namedview851"
     showgrid="false"
     inkscape:document-rotation="0"
     inkscape:zoom="10.928543"
     inkscape:cx="5.5017182"
     inkscape:cy="20.247897"
     inkscape:window-x="0"
     inkscape:window-y="23"
     inkscape:window-maximized="0"
     inkscape:current-layer="svg849" />
  <path
     d="M0 0h24v24H0z"
     fill="none"
     id="path845" />
  <path
     id="path847"
     style="stroke-width:0.902799"
     d="M 18 1 L 18 4 L 15 4 L 15 6 L 18 6 L 18 9 L 20 9 L 20 6 L 23 6 L 23 4 L 20 4 L 20 1 L 18 1 z M 4.8300781 8.4433594 C 4.234231 8.4433594 3.7384158 8.8228176 3.5488281 9.3554688 L 1.671875 14.763672 L 1.671875 21.986328 C 1.671875 22.482867 2.0776794 22.888672 2.5742188 22.888672 L 3.4765625 22.888672 C 3.9731018 22.888672 4.3789062 22.482867 4.3789062 21.986328 L 4.3789062 21.082031 L 15.212891 21.082031 L 15.212891 21.986328 C 15.212891 22.482867 15.618695 22.888672 16.115234 22.888672 L 17.019531 22.888672 C 17.51607 22.888672 17.921875 22.482867 17.921875 21.986328 L 17.921875 14.763672 L 16.042969 9.3554688 C 15.86241 8.8228175 15.357566 8.4433594 14.761719 8.4433594 L 4.8300781 8.4433594 z M 4.8300781 9.7988281 L 14.761719 9.7988281 L 16.115234 13.861328 L 3.4765625 13.861328 L 4.8300781 9.7988281 z M 4.8300781 15.666016 C 5.579401 15.666016 6.1855469 16.270208 6.1855469 17.019531 C 6.1855469 17.768853 5.579401 18.375 4.8300781 18.375 C 4.0807551 18.375 3.4765625 17.768853 3.4765625 17.019531 C 3.4765625 16.270208 4.0807551 15.666016 4.8300781 15.666016 z M 14.761719 15.666016 C 15.511041 15.666016 16.115234 16.270208 16.115234 17.019531 C 16.115234 17.768853 15.511041 18.375 14.761719 18.375 C 14.012395 18.375 13.408203 17.768853 13.408203 17.019531 C 13.408203 16.270208 14.012395 15.666016 14.761719 15.666016 z " />
</svg>
